<?xml version="1.0" encoding="UTF-8" standalone="no"?>
<!-- Created with Inkscape (http://www.inkscape.org/) -->

<svg
   xmlns:dc="http://purl.org/dc/elements/1.1/"
   xmlns:cc="http://creativecommons.org/ns#"
   xmlns:rdf="http://www.w3.org/1999/02/22-rdf-syntax-ns#"
   xmlns:svg="http://www.w3.org/2000/svg"
   xmlns="http://www.w3.org/2000/svg"
   xmlns:sodipodi="http://sodipodi.sourceforge.net/DTD/sodipodi-0.dtd"
   xmlns:inkscape="http://www.inkscape.org/namespaces/inkscape"
   width="210mm"
   height="297mm"
   viewBox="0 0 210 297"
   version="1.1"
   id="svg82"
   sodipodi:docname="JA.svg"
   inkscape:version="0.92.2 5c3e80d, 2017-08-06">
  <defs
     id="defs76" />
  <sodipodi:namedview
     id="base"
     pagecolor="#ffffff"
     bordercolor="#666666"
     borderopacity="1.0"
     inkscape:pageopacity="0.0"
     inkscape:pageshadow="2"
     inkscape:zoom="5.6568543"
     inkscape:cx="278.81885"
     inkscape:cy="727.38759"
     inkscape:document-units="mm"
     inkscape:current-layer="layer2"
     showgrid="false"
     inkscape:window-width="1436"
     inkscape:window-height="855"
     inkscape:window-x="24"
     inkscape:window-y="11"
     inkscape:window-maximized="0" />
  <metadata
     id="metadata79">
    <rdf:RDF>
      <cc:Work
         rdf:about="">
        <dc:format>image/svg+xml</dc:format>
        <dc:type
           rdf:resource="http://purl.org/dc/dcmitype/StillImage" />
      </cc:Work>
    </rdf:RDF>
  </metadata>
  <g
     inkscape:label="Layer 1"
     inkscape:groupmode="layer"
     id="layer1"
     style="display:inline">
    <g
       aria-label="A"
       style="font-style:normal;font-weight:normal;font-size:10.58333302px;line-height:1.25;font-family:sans-serif;letter-spacing:0px;word-spacing:0px;fill:#000000;fill-opacity:1;stroke:none;stroke-width:0.26458332"
       id="text90"
       transform="matrix(1,0,0.51171425,1.134724,-55.482518,-14.786716)"
       inkscape:export-xdpi="300"
       inkscape:export-ydpi="300">
      <path
         d="m 85.210622,104.33577 c -1.545122,0.26327 0.04837,1.04198 -0.146084,3.54513 -0.06047,0.7784 2.021324,0.87197 2.820531,0.12366 1.641888,-1.53733 -0.59227,-4.02357 -2.674447,-3.66879 z m -0.05961,-1.50991 c 0,0 0.382384,0.22985 0.631942,0.68766 1.50418,2.75938 0.70736,4.68424 2.26486,6.29499 0.387865,0.40113 2.993005,0.55339 1.684169,0.75741 -3.65839,0.57029 -2.397454,-0.9299 -2.70395,-1.3016 -0.807436,-0.45285 -2.150523,-0.76382 -3.339801,-0.0412 -0.625187,0.37986 -0.996383,1.44631 -0.996383,1.44631 0,0 0.105634,-0.35383 -0.158711,-0.36251 -0.399345,-0.0131 -0.647811,-0.48765 -0.751399,0.59842 -0.86386,-0.42155 0.681374,-1.5223 1.406527,-2.20016 0.193237,-0.29807 0.810252,-1.17689 0.829354,-1.33185 0,0 0.59436,-0.22437 0.831878,-0.91386 0.307712,-0.89326 0.446646,-0.70416 0.443095,-1.01075 -0.0081,-0.70254 -0.854971,-1.63673 -1.060903,-1.61757 -0.325998,0.0303 -0.944307,0.60946 -0.944307,0.60946 0,0 0.578114,-0.8979 1.001473,-1.21495 0.253605,-0.18992 0.862156,-0.39978 0.862156,-0.39978 z"
         style="fill:#808000;fill-opacity:0.55924174;stroke-width:0.26458332"
         id="path907"
         inkscape:connector-curvature="0"
         sodipodi:nodetypes="sssscsascscsccssascscc" />
    </g>
    <g
       id="g913" />
    <ellipse
       style="fill:#f2f2f2;fill-opacity:0;stroke:none;stroke-width:0.26458332"
       id="path931"
       cx="83.947685"
       cy="98.986687"
       rx="0.34243909"
       ry="0.30067819"
       inkscape:export-xdpi="300"
       inkscape:export-ydpi="300" />
  </g>
  <g
     inkscape:groupmode="layer"
     id="layer2"
     inkscape:label="eyes"
     style="display:inline">
    <g
       style="fill:#000000;fill-opacity:0.55924174"
       id="g918"
       transform="matrix(1,0,0.02269213,1,-2.0293924,0.56696429)"
       inkscape:export-xdpi="300"
       inkscape:export-ydpi="300">
      <g
         aria-label="J"
         style="font-style:normal;font-weight:normal;font-size:10.58333302px;line-height:1.25;font-family:sans-serif;letter-spacing:0px;word-spacing:0px;fill:#000000;fill-opacity:0.55924174;stroke:none;stroke-width:0.26458332"
         id="text86">
        <path
           d="m 79.160131,100.52288 0.992847,0.18708 c 0,0 0.667284,2.43211 0.547324,3.66995 -0.155967,1.60938 -1.265799,4.17704 -1.619631,4.59818 -0.352414,0.41946 -0.585405,0.39659 -1.367442,0.39659 l -2.903561,-1.1359 c 0,0 1.132206,0.17811 1.703843,0.224 0.374324,0.0301 1.127371,0.0334 1.127371,0.0334 0,0 0.787201,-0.12919 0.976684,-0.38758 0.189478,-0.25838 1.484473,-2.94557 1.50125,-4.52382 0.01145,-1.07656 -0.958685,-3.0619 -0.958685,-3.0619 z"
           style="fill:#808000;fill-opacity:0.55924174;stroke-width:0.26458332"
           id="path92"
           inkscape:connector-curvature="0"
           sodipodi:nodetypes="ccasscsssac" />
      </g>
      <path
         style="fill:#808000;fill-opacity:0.55924174;stroke:none;stroke-width:0.26458332px;stroke-linecap:butt;stroke-linejoin:miter;stroke-opacity:1"
         d="m 73.749684,99.420998 c 0.6474,-0.09857 0.935953,0.845952 1.525933,0.941182 3.155877,0.5094 8.288941,-4.3711 9.331891,-2.210709 0.935445,1.937699 0.935445,1.637026 0.935445,1.937699 0,0.65173 -1.276658,-1.252093 -1.937704,-0.668169 -1.385085,1.223489 -0.758413,0.541221 -1.259543,0.775079"
         id="path95"
         inkscape:connector-curvature="0"
         sodipodi:nodetypes="casssc" />
    </g>
    <ellipse
       style="fill:#808080;fill-opacity:0;stroke:none;stroke-width:0.26458332"
       id="path933"
       cx="86.695557"
       cy="100.5736"
       rx="0.43431297"
       ry="0.41760862"
       inkscape:export-xdpi="300"
       inkscape:export-ydpi="300" />
    <ellipse
       style="fill:#808080;fill-opacity:0;stroke:none;stroke-width:0.26458332"
       id="path935"
       cx="87.347023"
       cy="101.30023"
       rx="0.55124336"
       ry="0.57629991"
       inkscape:export-xdpi="300"
       inkscape:export-ydpi="300" />
    <ellipse
       style="fill:#808080;fill-opacity:0;stroke:none;stroke-width:0.26458332"
       id="path937"
       cx="89.844322"
       cy="105.82712"
       rx="0.27562168"
       ry="1.2945868"
       inkscape:export-xdpi="300"
       inkscape:export-ydpi="300" />
    <ellipse
       style="fill:#ff0033;fill-opacity:0;stroke:none;stroke-width:0.26458332"
       id="path939"
       cx="87.179977"
       cy="101.63432"
       rx="0.50113034"
       ry="0.47607383"
       inkscape:export-xdpi="300"
       inkscape:export-ydpi="300" />
    <ellipse
       style="fill:#ff0033;fill-opacity:0;stroke:none;stroke-width:0.26458332"
       id="path965"
       cx="75.236374"
       cy="103.34653"
       rx="0.23386084"
       ry="0.28397387"
       inkscape:export-xdpi="300"
       inkscape:export-ydpi="300" />
    <ellipse
       style="fill:#ff0033;fill-opacity:0;stroke:none;stroke-width:0.26458332"
       id="path967"
       cx="75.47023"
       cy="103.63049"
       rx="0.68487817"
       ry="0.58465207"
       inkscape:export-xdpi="300"
       inkscape:export-ydpi="300" />
    <circle
       style="fill:#ff0033;fill-opacity:0;stroke:none;stroke-width:0.26458332"
       id="path969"
       cx="76.155113"
       cy="104.14833"
       r="0.38419995"
       inkscape:export-xdpi="300"
       inkscape:export-ydpi="300" />
    <ellipse
       style="fill:#ff0033;fill-opacity:0;stroke:none;stroke-width:0.26458332"
       id="path971"
       cx="76.614479"
       cy="103.71402"
       rx="0.52618688"
       ry="0.71828681"
       inkscape:export-xdpi="300"
       inkscape:export-ydpi="300" />
    <ellipse
       style="fill:#000000;fill-opacity:0;stroke:none;stroke-width:0.08763975"
       id="path973"
       cx="84.056259"
       cy="98.886475"
       rx="0.25056517"
       ry="0.23386084"
       inkscape:export-xdpi="300"
       inkscape:export-ydpi="300" />
    <ellipse
       style="fill:#ececec;fill-opacity:1;stroke:none;stroke-width:0.10467143"
       id="path983"
       cx="83.680412"
       cy="98.930313"
       rx="0.19627602"
       ry="0.19001193"
       inkscape:export-xdpi="300"
       inkscape:export-ydpi="300" />
    <ellipse
       ry="0.096049979"
       rx="0.10022604"
       cy="102.33173"
       cx="82.068443"
       id="ellipse993"
       style="fill:#ececec;fill-opacity:1;stroke:none;stroke-width:0.05317935"
       inkscape:export-xdpi="300"
       inkscape:export-ydpi="300" />
  </g>
</svg>
