<?xml version="1.0" encoding="UTF-8" standalone="no"?>
<!-- Created with Inkscape (http://www.inkscape.org/) -->

<svg
   xmlns:dc="http://purl.org/dc/elements/1.1/"
   xmlns:cc="http://creativecommons.org/ns#"
   xmlns:rdf="http://www.w3.org/1999/02/22-rdf-syntax-ns#"
   xmlns:svg="http://www.w3.org/2000/svg"
   xmlns="http://www.w3.org/2000/svg"
   xmlns:xlink="http://www.w3.org/1999/xlink"
   xmlns:sodipodi="http://sodipodi.sourceforge.net/DTD/sodipodi-0.dtd"
   xmlns:inkscape="http://www.inkscape.org/namespaces/inkscape"
   width="210mm"
   height="297mm"
   viewBox="0 0 210 297"
   version="1.1"
   id="svg82"
   sodipodi:docname="JA_02.svg"
   inkscape:version="0.92.2 5c3e80d, 2017-08-06">
  <defs
     id="defs76">
    <linearGradient
       inkscape:collect="always"
       id="linearGradient2280">
      <stop
         style="stop-color:#501616;stop-opacity:1;"
         offset="0"
         id="stop2276" />
      <stop
         style="stop-color:#501616;stop-opacity:0;"
         offset="1"
         id="stop2278" />
    </linearGradient>
    <linearGradient
       inkscape:collect="always"
       id="linearGradient2264">
      <stop
         style="stop-color:#cacae8;stop-opacity:1;"
         offset="0"
         id="stop2260" />
      <stop
         style="stop-color:#cacae8;stop-opacity:0;"
         offset="1"
         id="stop2262" />
    </linearGradient>
    <linearGradient
       inkscape:collect="always"
       id="linearGradient2256">
      <stop
         style="stop-color:#86f500;stop-opacity:1;"
         offset="0"
         id="stop2252" />
      <stop
         style="stop-color:#86f500;stop-opacity:0;"
         offset="1"
         id="stop2254" />
    </linearGradient>
    <marker
       inkscape:stockid="Arrow2Send"
       orient="auto"
       refY="0.0"
       refX="0.0"
       id="Arrow2Send"
       style="overflow:visible;"
       inkscape:isstock="true">
      <path
         id="path1325"
         style="fill-rule:evenodd;stroke-width:0.625;stroke-linejoin:round;stroke:#552200;stroke-opacity:1;fill:#552200;fill-opacity:1"
         d="M 8.7185878,4.0337352 L -2.2072895,0.016013256 L 8.7185884,-4.0017078 C 6.9730900,-1.6296469 6.9831476,1.6157441 8.7185878,4.0337352 z "
         transform="scale(0.3) rotate(180) translate(-2.3,0)" />
    </marker>
    <marker
       inkscape:stockid="Arrow1Lstart"
       orient="auto"
       refY="0.0"
       refX="0.0"
       id="Arrow1Lstart"
       style="overflow:visible"
       inkscape:isstock="true">
      <path
         id="path1292"
         d="M 0.0,0.0 L 5.0,-5.0 L -12.5,0.0 L 5.0,5.0 L 0.0,0.0 z "
         style="fill-rule:evenodd;stroke:#000000;stroke-width:1pt;stroke-opacity:1;fill:#000000;fill-opacity:1"
         transform="scale(0.8) translate(12.5,0)" />
    </marker>
    <inkscape:path-effect
       effect="bspline"
       id="path-effect842"
       is_visible="true"
       weight="33.333333"
       steps="2"
       helper_size="0"
       apply_no_weight="true"
       apply_with_weight="true"
       only_selected="false" />
    <inkscape:path-effect
       effect="bspline"
       id="path-effect838"
       is_visible="true"
       weight="33.333333"
       steps="2"
       helper_size="0"
       apply_no_weight="true"
       apply_with_weight="true"
       only_selected="false" />
    <inkscape:path-effect
       effect="bspline"
       id="path-effect834"
       is_visible="true"
       weight="33.333333"
       steps="2"
       helper_size="0"
       apply_no_weight="true"
       apply_with_weight="true"
       only_selected="false" />
    <linearGradient
       inkscape:collect="always"
       xlink:href="#linearGradient2256"
       id="linearGradient2258"
       x1="277.03625"
       y1="384.58167"
       x2="301.56161"
       y2="407.53387"
       gradientUnits="userSpaceOnUse" />
    <linearGradient
       inkscape:collect="always"
       xlink:href="#linearGradient2264"
       id="linearGradient2266"
       x1="74.731293"
       y1="100.01473"
       x2="73.554169"
       y2="106.5"
       gradientUnits="userSpaceOnUse" />
    <linearGradient
       inkscape:collect="always"
       xlink:href="#linearGradient2280"
       id="linearGradient2282"
       x1="74.59642"
       y1="104.96248"
       x2="77.246628"
       y2="110.95067"
       gradientUnits="userSpaceOnUse" />
  </defs>
  <sodipodi:namedview
     id="base"
     pagecolor="#ffffff"
     bordercolor="#666666"
     borderopacity="1.0"
     inkscape:pageopacity="0.0"
     inkscape:pageshadow="2"
     inkscape:zoom="8"
     inkscape:cx="282.13447"
     inkscape:cy="723.05003"
     inkscape:document-units="mm"
     inkscape:current-layer="layer2"
     showgrid="false"
     inkscape:window-width="1436"
     inkscape:window-height="855"
     inkscape:window-x="24"
     inkscape:window-y="11"
     inkscape:window-maximized="0" />
  <metadata
     id="metadata79">
    <rdf:RDF>
      <cc:Work
         rdf:about="">
        <dc:format>image/svg+xml</dc:format>
        <dc:type
           rdf:resource="http://purl.org/dc/dcmitype/StillImage" />
      </cc:Work>
    </rdf:RDF>
  </metadata>
  <g
     inkscape:label="Layer 1"
     inkscape:groupmode="layer"
     id="layer1"
     style="display:inline">
    <g
       id="g913" />
  </g>
  <g
     inkscape:groupmode="layer"
     id="layer2"
     inkscape:label="eyes"
     style="display:inline">
    <path
       style="fill:none;stroke:url(#linearGradient2282);stroke-width:0.16500001;stroke-linecap:round;stroke-linejoin:miter;stroke-miterlimit:4;stroke-dasharray:1.98, 0.165;stroke-dashoffset:0;stroke-opacity:1"
       d="m 76.03922,108.86904 c -0.35864,-0.91999 0.440323,-0.88072 -0.337546,-1.67505 -0.716116,-0.73128 -0.668771,-1.26501 -1.105256,-2.23151"
       id="path840"
       inkscape:connector-curvature="0"
       sodipodi:nodetypes="csc"
       inkscape:export-xdpi="320.08899"
       inkscape:export-ydpi="320.08899" />
    <path
       style="fill:url(#linearGradient2266);fill-opacity:1;stroke:#000000;stroke-width:0.06614583;stroke-linecap:round;stroke-linejoin:round;stroke-miterlimit:4;stroke-dasharray:none;stroke-dashoffset:0;stroke-opacity:1"
       d="m 69.749834,102.01015 c 0.495495,-0.0555 0.990709,-0.11091 1.396711,-0.30402 0.406002,-0.19311 0.72282,-0.52365 1.144182,-0.94884 0.421362,-0.4252 0.947234,-0.945034 1.409812,-1.251404 0.462578,-0.306371 0.861801,-0.399455 1.153005,-0.227753 0.291204,0.171701 0.474731,0.608232 0.710919,1.021517 0.236188,0.41328 0.524763,0.80288 0.669129,0.99778 0.144366,0.19491 0.144366,0.19491 -0.01548,0.0778 -0.159847,-0.11715 -0.478283,-0.35054 -0.820035,-0.50643 -0.341752,-0.15589 -0.70653,-0.23387 -1.01687,-0.10572 -0.310339,0.12814 -0.57378,0.47239 -0.820808,0.88868 -0.247028,0.41629 -0.478864,0.90464 -0.205251,1.8475 0.273613,0.94286 1.044796,2.31126 1.172964,3.13275 0.128167,0.8215 -0.392747,1.08545 -0.815628,1.10304 -0.422881,0.0176 -0.746856,-0.21147 -1.070899,-0.44057"
       id="path832"
       inkscape:connector-curvature="0"
       inkscape:path-effect="#path-effect834"
       inkscape:original-d="m 69.749834,102.01015 c 0.495469,-0.0557 0.990682,-0.11115 1.485625,-0.16632 0.317093,-0.33081 0.633912,-0.66134 0.950476,-0.99162 0.52615,-0.52012 1.052025,-1.039955 1.577641,-1.559537 0.399496,-0.09335 0.798719,-0.186434 1.197692,-0.279257 0.183799,0.436284 0.367326,0.872815 0.550595,1.309624 0.289081,0.38967 0.577657,0.77927 0.866095,1.1693 2.58e-4,-2.6e-4 2.58e-4,-2.6e-4 0,0 -0.319477,-0.2346 -0.637916,-0.46798 -0.957262,-0.70158 -0.364306,-0.0782 -0.729085,-0.15617 -1.094013,-0.23386 -0.255782,0.33431 -0.519221,0.67856 -0.779507,1.01861 -0.233693,0.49255 -0.465529,0.9809 -0.701341,1.47733 0.783239,1.38906 1.554423,2.75746 2.3313,4.1367 -0.520911,0.26382 -1.041822,0.52778 -1.563422,0.79221 -0.3239,-0.22945 -0.972129,-0.68731 -0.972129,-0.68731"
       sodipodi:nodetypes="ccccccccccccccc"
       inkscape:export-xdpi="320.08899"
       inkscape:export-ydpi="320.08899" />
    <path
       style="fill:#ffffff;stroke:#000000;stroke-width:0.07990417;stroke-linecap:round;stroke-linejoin:round;stroke-miterlimit:4;stroke-dasharray:none;stroke-opacity:1"
       d="m 73.674001,103.23053 c 0.08568,0.42888 0.412811,0.86506 0.506421,0.8728 0.09361,0.008 -0.04659,-0.41285 2.08e-4,-0.64664 0.0468,-0.23378 0.280964,-0.28061 0.460005,0.0696 0.179041,0.35023 0.30393,1.09956 0.44988,1.74734 0.14595,0.64779 0.321757,1.22316 0.797437,1.8002 0.475679,0.57704 1.254982,1.16931 2.114039,1.44017 0.859057,0.27086 1.79749,0.22017 2.753017,0.018 0.955528,-0.20215 1.92783,-0.55554 2.900454,-0.90904 -0.974381,0.0928 -1.947818,0.18543 -2.61796,0.0609 -0.670142,-0.12449 -1.033305,-0.46465 -1.434502,-0.87089 -0.401197,-0.40623 -0.834415,-0.87246 -1.206141,-1.47364 -0.371726,-0.60118 -0.680351,-1.33551 -1.190911,-1.93221 -0.510561,-0.5967 -1.201108,-1.04172 -1.78568,-1.26001 -0.584572,-0.21829 -1.05225,-0.20269 -1.364141,0.0154 -0.311891,0.21812 -0.467802,0.63907 -0.382126,1.06794 z"
       id="path836"
       inkscape:connector-curvature="0"
       inkscape:path-effect="#path-effect838"
       inkscape:original-d="m 73.432301,103.22291 c 0.32767,0.43628 0.654806,0.87246 0.982216,1.30962 -0.140168,-0.42156 -0.280368,-0.84216 -0.42095,-1.26285 0.233815,-0.047 0.467987,-0.0938 0.701583,-0.14031 0.124827,0.74711 0.249716,1.49644 0.374176,2.24506 0.171812,0.54557 0.343262,1.12227 0.514496,1.6838 0.780033,0.59236 1.559335,1.18463 2.338607,1.77734 0.938603,-0.051 1.877038,-0.10165 2.815162,-0.15207 0.97289,-0.35377 2.917871,-1.06051 2.917871,-1.06051 0,0 -1.947841,0.18519 -2.923142,0.27828 -0.364701,-0.34212 -0.727865,-0.68228 -1.094162,-1.02486 -0.436081,-0.46986 -0.8693,-0.93609 -1.304347,-1.40374 -0.308361,-0.73459 -0.616985,-1.46892 -0.925875,-2.20299 -0.716929,-0.4524 -1.4029,-0.90452 -2.104747,-1.35639 -0.467503,0.0153 -0.935181,0.0309 -1.403165,0.0468 -0.155643,0.42067 -0.311551,0.84162 -0.467723,1.26282 z"
       sodipodi:nodetypes="sccccccccccccccs"
       inkscape:export-xdpi="320.08899"
       inkscape:export-ydpi="320.08899" />
    <text
       xml:space="preserve"
       style="font-style:normal;font-weight:normal;font-size:1.0675478px;line-height:1.25;font-family:sans-serif;letter-spacing:0px;word-spacing:0px;fill:#000000;fill-opacity:1;stroke:#000000;stroke-width:0.02668869;stroke-opacity:1"
       x="81.541161"
       y="122.03226"
       id="text2109"
       transform="matrix(1.1418693,0,-0.16998684,0.87575697,0,0)"
       inkscape:export-xdpi="320.08899"
       inkscape:export-ydpi="320.08899"><tspan
         sodipodi:role="line"
         id="tspan2107"
         x="81.541161"
         y="122.03226"
         style="stroke:#000000;stroke-width:0.02668869;stroke-opacity:1">AI</tspan></text>
    <path
       sodipodi:type="spiral"
       style="fill:none;fill-rule:evenodd;stroke:#000000;stroke-width:0.18353359;stroke-miterlimit:4;stroke-dasharray:none"
       id="path2119"
       sodipodi:cx="65.270561"
       sodipodi:cy="104.15836"
       sodipodi:expansion="1"
       sodipodi:revolution="3"
       sodipodi:radius="1.165087"
       sodipodi:argument="-17.950365"
       sodipodi:t0="0"
       d="m 65.270561,104.15836 c 0.03635,0.0457 -0.04371,0.0716 -0.076,0.0604 -0.08752,-0.0302 -0.08881,-0.14687 -0.04482,-0.21243 0.07868,-0.11725 0.247691,-0.11273 0.348843,-0.0292 0.148444,0.12254 0.137538,0.34994 0.01364,0.48526 -0.165135,0.18036 -0.452709,0.16274 -0.62168,-0.002 -0.212633,-0.20723 -0.188133,-0.55572 0.01754,-0.7581 0.249098,-0.2451 0.658881,-0.21365 0.894518,0.0331 0.27769,0.29082 0.239241,0.76212 -0.04872,1.03093 -0.332465,0.31036 -0.865426,0.26488 -1.167355,-0.0643 -0.343071,-0.37405 -0.290558,-0.96877 0.0799,-1.30377 0.415601,-0.37583 1.072142,-0.31626 1.440193,0.0955 0.408606,0.45712 0.341977,1.17554 -0.111085,1.57661"
       transform="matrix(0.19949038,0,0,0.20418693,61.565821,78.560722)"
       inkscape:export-xdpi="320.08899"
       inkscape:export-ydpi="320.08899" />
    <path
       transform="matrix(0.19949038,0,0,0.20418693,61.43588,81.246798)"
       d="m 65.270561,104.15836 c 0.03635,0.0457 -0.04371,0.0716 -0.076,0.0604 -0.08752,-0.0302 -0.08881,-0.14687 -0.04482,-0.21243 0.07868,-0.11725 0.247691,-0.11273 0.348843,-0.0292 0.148444,0.12254 0.137538,0.34994 0.01364,0.48526 -0.165135,0.18036 -0.452709,0.16274 -0.62168,-0.002 -0.212633,-0.20723 -0.188133,-0.55572 0.01754,-0.7581 0.249098,-0.2451 0.658881,-0.21365 0.894518,0.0331 0.27769,0.29082 0.239241,0.76212 -0.04872,1.03093 -0.332465,0.31036 -0.865426,0.26488 -1.167355,-0.0643 -0.343071,-0.37405 -0.290558,-0.96877 0.0799,-1.30377 0.415601,-0.37583 1.072142,-0.31626 1.440193,0.0955 0.408606,0.45712 0.341977,1.17554 -0.111085,1.57661"
       sodipodi:t0="0"
       sodipodi:argument="-17.950365"
       sodipodi:radius="1.165087"
       sodipodi:revolution="3"
       sodipodi:expansion="1"
       sodipodi:cy="104.15836"
       sodipodi:cx="65.270561"
       id="path2121"
       style="fill:none;fill-rule:evenodd;stroke:#000000;stroke-width:0.18353359;stroke-miterlimit:4;stroke-dasharray:none"
       sodipodi:type="spiral"
       inkscape:export-xdpi="320.08899"
       inkscape:export-ydpi="320.08899" />
    <path
       style="opacity:1;fill:url(#linearGradient2258);fill-opacity:1;stroke:#000000;stroke-width:0;stroke-linecap:round;stroke-linejoin:round;stroke-miterlimit:4;stroke-dasharray:none;stroke-dashoffset:0;stroke-opacity:0.77251186"
       d="m 297.57183,410.51403 c -4.80716,-0.60471 -9.8631,-4.02769 -12.00751,-8.12933 -0.71742,-1.37221 -1.14794,-2.77823 -1.93466,-6.31828 -0.71711,-3.22681 -0.97048,-4.11625 -1.4281,-5.01327 -0.46391,-0.90933 -1.2452,-1.18567 -1.77337,-0.62725 -0.2422,0.25607 -0.26176,0.39182 -0.21854,1.51631 l 0.0475,1.23505 -0.33213,-0.39784 c -0.46118,-0.55243 -1.09113,-1.88378 -1.25676,-2.65609 -0.17153,-0.79983 -0.079,-1.64854 0.26775,-2.45447 0.6726,-1.5635 2.32113,-2.25817 4.39591,-1.85238 2.49844,0.48865 5.23304,2.06908 7.47934,4.3226 1.43572,1.44033 2.04422,2.31455 3.86765,5.55656 2.24052,3.98358 3.15823,5.22202 5.94297,8.01991 2.40802,2.4194 3.53361,3.10158 5.75748,3.48939 1.26482,0.22056 4.29233,0.24956 6.41755,0.0615 0.78369,-0.0694 1.4473,-0.10371 1.47469,-0.0763 0.0901,0.0901 -5.61304,1.93797 -7.33709,2.37734 -3.44538,0.87806 -7.02812,1.24029 -9.36264,0.94662 z m -15.63736,-22.35098 c 0,0.0895 0.0674,0.0813 0.19369,-0.0235 0.12991,-0.10781 0.18136,-0.32483 0.15625,-0.65905 -0.0707,-0.94061 -1.06201,-1.26645 -1.55658,-0.51164 -0.40416,0.61682 0.22991,1.42837 0.91306,1.16864 0.19759,-0.0751 0.29358,-0.0668 0.29358,0.0256 z"
       id="path2242"
       inkscape:connector-curvature="0"
       transform="scale(0.26458333)"
       inkscape:transform-center-x="-0.033070539"
       inkscape:transform-center-y="-8.1530498e-05"
       inkscape:export-xdpi="320.08899"
       inkscape:export-ydpi="320.08899" />
  </g>
</svg>
